<svg xmlns="http://www.w3.org/2000/svg" width="28.481" height="28.532" viewBox="0 0 28.481 28.532">
    <defs>
        <style>
            .cls-1{fill:none;stroke:#fff;stroke-linecap:round;stroke-linejoin:round;stroke-width:2px}
        </style>
    </defs>
    <path id="phone-call_3_" d="M18.449 6.051a6.313 6.313 0 0 1 4.988 4.988M18.449 1a11.364 11.364 0 0 1 10.038 10.026M27.224 21.1v3.79a2.525 2.525 0 0 1-2.753 2.525 24.988 24.988 0 0 1-10.9-3.876A24.622 24.622 0 0 1 6 15.963 24.988 24.988 0 0 1 2.122 5.015a2.525 2.525 0 0 1 2.513-2.752h3.788a2.525 2.525 0 0 1 2.525 2.172 16.213 16.213 0 0 0 .884 3.548 2.525 2.525 0 0 1-.568 2.664l-1.6 1.6a20.2 20.2 0 0 0 7.576 7.576l1.6-1.6a2.525 2.525 0 0 1 2.664-.568 16.213 16.213 0 0 0 3.548.884 2.525 2.525 0 0 1 2.172 2.561z" class="cls-1" data-name="phone-call (3)" transform="translate(-1.111 .104)"/>
</svg>
