<svg xmlns="http://www.w3.org/2000/svg" id="youtube_3_" width="53" height="53" data-name="youtube (3)" viewBox="0 0 53 53">
    <defs>
        <style>
            .cls-1{fill:#273f5a}
        </style>
    </defs>
    <path id="Path_5" d="M224.113 220.389l9.709-6.175-9.709-6.175zm0 0" class="cls-1" data-name="Path 5" transform="translate(-201.037 -187.714)"/>
    <path id="Path_6" d="M26.5 0A26.5 26.5 0 1 0 53 26.5 26.5 26.5 0 0 0 26.5 0zm16.558 26.527a43.737 43.737 0 0 1-.682 7.966 4.149 4.149 0 0 1-2.919 2.919c-2.592.682-12.958.682-12.958.682s-10.339 0-12.958-.709a4.15 4.15 0 0 1-2.919-2.919 43.545 43.545 0 0 1-.681-7.966 43.709 43.709 0 0 1 .682-7.965 4.234 4.234 0 0 1 2.919-2.946c2.592-.682 12.958-.682 12.958-.682s10.366 0 12.958.709a4.15 4.15 0 0 1 2.919 2.919 41.506 41.506 0 0 1 .682 7.993zm0 0" class="cls-1" data-name="Path 6"/>
</svg>
