<svg xmlns="http://www.w3.org/2000/svg" width="53" height="53" viewBox="0 0 53 53">
    <defs>
        <style>
            .cls-1{fill:#fff}
        </style>
    </defs>
    <g id="instagram_1_" data-name="instagram (1)">
        <path id="Path_7" d="M219.511 213.256a6.256 6.256 0 1 1-6.255-6.256 6.256 6.256 0 0 1 6.255 6.256zm0 0" class="cls-1" data-name="Path 7" transform="translate(-186.756 -186.756)"/>
        <path id="Path_9" d="M26.5 0A26.5 26.5 0 1 0 53 26.5 26.5 26.5 0 0 0 26.5 0zm15.125 32.774a11.164 11.164 0 0 1-.707 3.694 7.781 7.781 0 0 1-4.45 4.45 11.172 11.172 0 0 1-3.693.707c-1.623.074-2.141.092-6.274.092s-4.651-.018-6.274-.092a11.172 11.172 0 0 1-3.693-.707 7.781 7.781 0 0 1-4.45-4.45 11.162 11.162 0 0 1-.707-3.693c-.075-1.623-.092-2.141-.092-6.274s.017-4.651.092-6.274a11.165 11.165 0 0 1 .707-3.694 7.786 7.786 0 0 1 4.451-4.45 11.175 11.175 0 0 1 3.694-.707c1.623-.074 2.141-.092 6.274-.092s4.651.018 6.274.092a11.177 11.177 0 0 1 3.694.706 7.783 7.783 0 0 1 4.45 4.451 11.163 11.163 0 0 1 .708 3.694c.074 1.623.091 2.141.091 6.274s-.02 4.65-.095 6.273zm0 0" class="cls-1" data-name="Path 9"/>
        <path id="Path_8" d="M162.574 139.385a5.609 5.609 0 0 0-3.214-3.214 9.372 9.372 0 0 0-3.145-.583c-1.786-.081-2.322-.1-6.844-.1s-5.058.017-6.844.1a9.378 9.378 0 0 0-3.145.583 5.611 5.611 0 0 0-3.215 3.214 9.374 9.374 0 0 0-.583 3.145c-.081 1.786-.1 2.321-.1 6.844s.018 5.058.1 6.844a9.371 9.371 0 0 0 .583 3.145 5.609 5.609 0 0 0 3.214 3.214 9.36 9.36 0 0 0 3.145.583c1.786.081 2.321.1 6.844.1s5.059-.017 6.844-.1a9.36 9.36 0 0 0 3.145-.583 5.609 5.609 0 0 0 3.214-3.214 9.38 9.38 0 0 0 .583-3.145c.081-1.786.1-2.322.1-6.844s-.017-5.058-.1-6.844a9.36 9.36 0 0 0-.582-3.145zm-13.2 18.686a8.7 8.7 0 1 1 8.7-8.7 8.7 8.7 0 0 1-8.704 8.7zm9.041-15.706a2.033 2.033 0 1 1 2.033-2.033 2.033 2.033 0 0 1-2.037 2.033zm0 0" class="cls-1" data-name="Path 8" transform="translate(-122.87 -122.874)"/>
    </g>
</svg>
